<svg width="16" height="16" viewBox="0 0 16 16" fill="none" xmlns="http://www.w3.org/2000/svg">
<g id="Location">
<path id="Vector" d="M7.99999 1.33331C6.5855 1.33331 5.22895 1.89522 4.22875 2.89541C3.22856 3.8956 2.66666 5.25216 2.66666 6.66665C2.66666 10.2666 7.36666 14.3333 7.56666 14.5066C7.68741 14.6099 7.84109 14.6667 7.99999 14.6667C8.15889 14.6667 8.31257 14.6099 8.43332 14.5066C8.66666 14.3333 13.3333 10.2666 13.3333 6.66665C13.3333 5.25216 12.7714 3.8956 11.7712 2.89541C10.771 1.89522 9.41448 1.33331 7.99999 1.33331ZM7.99999 13.1C6.57999 11.7666 3.99999 8.89331 3.99999 6.66665C3.99999 5.60578 4.42142 4.58836 5.17156 3.83822C5.92171 3.08807 6.93912 2.66665 7.99999 2.66665C9.06086 2.66665 10.0783 3.08807 10.8284 3.83822C11.5786 4.58836 12 5.60578 12 6.66665C12 8.89331 9.41999 11.7733 7.99999 13.1ZM7.99999 3.99998C7.47257 3.99998 6.957 4.15638 6.51847 4.44939C6.07994 4.74241 5.73814 5.15889 5.53631 5.64616C5.33448 6.13343 5.28167 6.6696 5.38456 7.18689C5.48746 7.70417 5.74143 8.17932 6.11437 8.55226C6.48731 8.9252 6.96247 9.17918 7.47975 9.28207C7.99703 9.38497 8.53321 9.33216 9.02048 9.13033C9.50775 8.92849 9.92422 8.5867 10.2172 8.14817C10.5103 7.70964 10.6667 7.19406 10.6667 6.66665C10.6667 5.9594 10.3857 5.28113 9.88561 4.78103C9.38551 4.28093 8.70723 3.99998 7.99999 3.99998ZM7.99999 7.99998C7.73628 7.99998 7.4785 7.92178 7.25923 7.77527C7.03996 7.62876 6.86907 7.42053 6.76815 7.17689C6.66723 6.93326 6.64083 6.66517 6.69228 6.40653C6.74372 6.14788 6.87071 5.91031 7.05718 5.72384C7.24365 5.53737 7.48123 5.41038 7.73987 5.35893C7.99851 5.30749 8.2666 5.33389 8.51023 5.43481C8.75387 5.53572 8.96211 5.70662 9.10862 5.92589C9.25512 6.14515 9.33332 6.40294 9.33332 6.66665C9.33332 7.02027 9.19285 7.35941 8.9428 7.60946C8.69275 7.8595 8.35361 7.99998 7.99999 7.99998Z" fill="#090F09"/>
</g>
</svg>
